{
    "asset": {
        "generator": "COLLADA2GLTF",
        "version": "2.0"
    },
    "scenes": [
        {
            "nodes": [
                0
            ]
        }
    ],
    "scene": 0,
    "nodes": [
        {
            "children": [
                1
            ],
            "name": "Y_UP"
        },
        {
            "children": [
                4,
                2
            ],
            "matrix": [
                1.0,
                0.0,
                0.0,
                0.0,
                0.0,
                5.960464477539064e-08,
                -0.9999999403953552,
                0.0,
                0.0,
                0.9999999403953552,
                5.960464477539064e-08,
                0.0,
                0.0,
                0.0,
                0.10235190391540527,
                1.0
            ],
            "name": "root"
        },
        {
            "children": [
                3
            ],
            "matrix": [
                0.9999455213546752,
                4.6566125955216364e-10,
                -0.01043783873319626,
                0.0,
                0.01043783873319626,
                -3.576278686523438e-07,
                0.99994558095932,
                0.0,
                -2.3283064365386963e-09,
                -1.0000001192092896,
                -3.576278686523438e-07,
                0.0,
                0.1013469696044922,
                0.10235190391540527,
                0.002441466087475419,
                1.0
            ],
            "name": "Bone01"
        },
        {
            "matrix": [
                0.9999836087226868,
                -0.005726782605051994,
                -2.963801700539544e-17,
                0.0,
                0.005726782605051994,
                0.9999836087226868,
                0.0,
                0.0,
                2.963753393191771e-17,
                -1.6973052113355408e-19,
                1.0,
                0.0,
                23.104795455932617,
                -3.53669747710228e-07,
                1.0977723619021164e-08,
                1.0
            ],
            "name": "Bone02"
        },
        {
            "mesh": 0,
            "children": [
                5
            ],
            "matrix": [
                1.399999737739563,
                0.0,
                0.0,
                0.0,
                0.0,
                1.399999737739563,
                0.0,
                0.0,
                0.0,
                0.0,
                1.399999737739563,
                0.0,
                0.0,
                0.10235190391540527,
                0.0,
                1.0
            ],
            "skin": 0,
            "name": "it0222"
        },
        {
            "mesh": 1
        }
    ],
    "meshes": [
        {
            "primitives": [
                {
                    "attributes": {
                        "JOINTS_0": 1,
                        "NORMAL": 2,
                        "POSITION": 3,
                        "TEXCOORD_0": 4,
                        "WEIGHTS_0": 5
                    },
                    "indices": 0,
                    "mode": 4,
                    "material": 0
                }
            ],
            "name": "meshId0_name"
        },
        {
            "primitives": [
                {
                    "attributes": {
                        "JOINTS_0": 7,
                        "NORMAL": 8,
                        "POSITION": 9,
                        "TEXCOORD_0": 10,
                        "WEIGHTS_0": 11
                    },
                    "indices": 6,
                    "mode": 4,
                    "material": 1
                }
            ],
            "name": "meshId1_name"
        }
    ],
    "skins": [
        {
            "inverseBindMatrices": 12,
            "joints": [
                2,
                3
            ],
            "name": "skinCluster1"
        }
    ],
    "accessors": [
        {
            "bufferView": 0,
            "byteOffset": 0,
            "componentType": 5123,
            "count": 5133,
            "max": [
                1027
            ],
            "min": [
                0
            ],
            "type": "SCALAR"
        },
        {
            "bufferView": 1,
            "byteOffset": 0,
            "componentType": 5123,
            "count": 1028,
            "max": [
                1,
                2,
                2,
                0
            ],
            "min": [
                0,
                0,
                0,
                0
            ],
            "type": "VEC4"
        },
        {
            "bufferView": 2,
            "byteOffset": 0,
            "componentType": 5126,
            "count": 1028,
            "max": [
                0.9995441436767578,
                0.999972403049469,
                0.9999993443489076
            ],
            "min": [
                -0.999936819076538,
                -0.999972403049469,
                -0.999992609024048
            ],
            "type": "VEC3"
        },
        {
            "bufferView": 2,
            "byteOffset": 12336,
            "componentType": 5126,
            "count": 1028,
            "max": [
                72.44470977783203,
                5.867794990539551,
                10.431262969970703
            ],
            "min": [
                1.5788190364837649,
                -5.867794036865234,
                -8.775802612304688
            ],
            "type": "VEC3"
        },
        {
            "bufferView": 1,
            "byteOffset": 8224,
            "componentType": 5126,
            "count": 1028,
            "max": [
                0.9907546043395996,
                0.9669442772865297
            ],
            "min": [
                0.00990800838917494,
                0.06033402681350708
            ],
            "type": "VEC2"
        },
        {
            "bufferView": 3,
            "byteOffset": 0,
            "componentType": 5126,
            "count": 1028,
            "max": [
                1.0,
                0.89649498462677,
                0.5599521398544312,
                0.0
            ],
            "min": [
                0.00010027977987192573,
                0.0,
                0.0,
                0.0
            ],
            "type": "VEC4"
        },
        {
            "bufferView": 0,
            "byteOffset": 10266,
            "componentType": 5123,
            "count": 1770,
            "max": [
                500
            ],
            "min": [
                0
            ],
            "type": "SCALAR"
        },
        {
            "bufferView": 1,
            "byteOffset": 16448,
            "componentType": 5123,
            "count": 501,
            "max": [
                0,
                1,
                0,
                0
            ],
            "min": [
                0,
                0,
                0,
                0
            ],
            "type": "VEC4"
        },
        {
            "bufferView": 2,
            "byteOffset": 24672,
            "componentType": 5126,
            "count": 501,
            "max": [
                0.9873576760292052,
                0.9166014194488524,
                0.9981755018234252
            ],
            "min": [
                -0.9999568462371826,
                -0.9166000485420228,
                -0.9997260570526124
            ],
            "type": "VEC3"
        },
        {
            "bufferView": 2,
            "byteOffset": 30684,
            "componentType": 5126,
            "count": 501,
            "max": [
                10.284563064575195,
                2.047177314758301,
                0.8435147404670715
            ],
            "min": [
                2.4275448322296143,
                -2.047175407409668,
                -0.5784369707107544
            ],
            "type": "VEC3"
        },
        {
            "bufferView": 1,
            "byteOffset": 20456,
            "componentType": 5126,
            "count": 501,
            "max": [
                0.9762552976608276,
                0.9728646278381348
            ],
            "min": [
                0.8707656860351562,
                0.8325622081756592
            ],
            "type": "VEC2"
        },
        {
            "bufferView": 3,
            "byteOffset": 16448,
            "componentType": 5126,
            "count": 501,
            "max": [
                1.0,
                0.03420517221093178,
                0.0,
                0.0
            ],
            "min": [
                0.965794801712036,
                0.0,
                0.0,
                0.0
            ],
            "type": "VEC4"
        },
        {
            "bufferView": 4,
            "byteOffset": 0,
            "componentType": 5126,
            "count": 2,
            "max": [
                1.39992356300354,
                0.022629790008068088,
                -4.5741139764743374e-09,
                0.0,
                4.8338399949443556e-09,
                -5.006661467632512e-07,
                -1.399999737739563,
                0.0,
                -0.014612970873713493,
                1.3999234437942505,
                -5.006583592148672e-07,
                0.0,
                -0.1013159602880478,
                -0.003499175189062953,
                1.3497468698275839e-09,
                1.0000001192092896
            ],
            "min": [
                1.399816870689392,
                0.01461296994239092,
                -4.574114864652756e-09,
                0.0,
                1.9665538086854895e-09,
                -5.006855872125016e-07,
                -1.3999998569488525,
                0.0,
                -0.022629790008068088,
                1.399816870689392,
                -5.006583592148672e-07,
                0.0,
                -23.20571517944336,
                -0.13639512658119204,
                -9.627972197279178e-09,
                1.0
            ],
            "type": "MAT4"
        }
    ],
    "materials": [
        {
            "pbrMetallicRoughness": {
                "baseColorTexture": {
                    "index": 0
                },
                "metallicFactor": 0.0
            },
            "name": "base"
        },
        {
            "pbrMetallicRoughness": {
                "baseColorTexture": {
                    "index": 1
                },
                "metallicFactor": 0.0
            },
            "name": "mouth"
        }
    ],
    "textures": [
        {
            "sampler": 0,
            "source": 0
        },
        {
            "sampler": 0,
            "source": 0
        }
    ],
    "images": [
        {
            "uri": "data:image/png;base64,"
        }
    ],
    "samplers": [
        {
            "magFilter": 9729,
            "minFilter": 9986,
            "wrapS": 10497,
            "wrapT": 10497
        }
    ],
    "bufferViews": [
        {
            "buffer": 0,
            "byteOffset": 85752,
            "byteLength": 13806,
            "target": 34963
        },
        {
            "buffer": 0,
            "byteOffset": 61288,
            "byteLength": 24464,
            "byteStride": 8,
            "target": 34962
        },
        {
            "buffer": 0,
            "byteOffset": 24592,
            "byteLength": 36696,
            "byteStride": 12,
            "target": 34962
        },
        {
            "buffer": 0,
            "byteOffset": 128,
            "byteLength": 24464,
            "byteStride": 16,
            "target": 34962
        },
        {
            "buffer": 0,
            "byteOffset": 0,
            "byteLength": 128
        }
    ],
    "buffers": [
        {
            "byteLength": 99558,
            "uri": "data:application/octet-stream;base64,"
        }
    ]
}