{
    "asset": {
        "generator": "COLLADA2GLTF",
        "version": "2.0"
    },
    "scenes": [
        {
            "nodes": [
                0
            ]
        }
    ],
    "scene": 0,
    "nodes": [
        {
            "children": [
                5,
                1
            ],
            "name": "Y_UP"
        },
        {
            "children": [
                2
            ],
            "matrix": [
                1.0,
                0.0,
                0.0,
                0.0,
                0.0,
                5.960464477539064e-08,
                -0.9999999403953552,
                0.0,
                0.0,
                0.9999999403953552,
                5.960464477539064e-08,
                0.0,
                0.0,
                0.0,
                0.10235190391540527,
                1.0
            ],
            "name": "root"
        },
        {
            "children": [
                3
            ],
            "matrix": [
                0.9999455213546752,
                4.6566125955216364e-10,
                -0.01043783873319626,
                0.0,
                0.01043783873319626,
                -3.576278686523438e-07,
                0.99994558095932,
                0.0,
                -2.3283064365386963e-09,
                -1.0000001192092896,
                -3.576278686523438e-07,
                0.0,
                0.1013469696044922,
                0.10235190391540527,
                0.002441466087475419,
                1.0
            ],
            "name": "Bone01"
        },
        {
            "children": [
                4
            ],
            "matrix": [
                0.9999836087226868,
                -0.005726782605051994,
                -2.963801700539544e-17,
                0.0,
                0.005726782605051994,
                0.9999836087226868,
                0.0,
                0.0,
                2.963753393191771e-17,
                -1.6973052113355408e-19,
                1.0,
                0.0,
                23.104795455932617,
                -3.53669747710228e-07,
                1.0977723619021164e-08,
                1.0
            ],
            "name": "Bone02"
        },
        {
            "matrix": [
                0.9998183846473694,
                0.019054396077990532,
                -2.702465140558274e-09,
                0.0,
                -0.019054396077990532,
                0.9998183846473694,
                1.1055392712400192e-14,
                0.0,
                2.7019748660706e-09,
                5.1482786783685335e-11,
                1.0,
                0.0,
                20.888368606567383,
                -7.033348083496094e-06,
                3.84409517550921e-08,
                1.0
            ],
            "name": "Bone03"
        },
        {
            "mesh": 0,
            "matrix": [
                1.0,
                0.0,
                0.0,
                0.0,
                0.0,
                5.960464477539064e-08,
                -0.9999999403953552,
                0.0,
                0.0,
                0.9999999403953552,
                5.960464477539064e-08,
                0.0,
                0.0,
                0.0,
                0.0,
                1.0
            ],
            "skin": 0,
            "name": "it0221"
        }
    ],
    "meshes": [
        {
            "primitives": [
                {
                    "attributes": {
                        "JOINTS_0": 1,
                        "NORMAL": 2,
                        "POSITION": 3,
                        "TEXCOORD_0": 4,
                        "WEIGHTS_0": 5
                    },
                    "indices": 0,
                    "mode": 4,
                    "material": 0
                }
            ],
            "name": "meshId0_name"
        }
    ],
    "skins": [
        {
            "inverseBindMatrices": 6,
            "joints": [
                2,
                3,
                4
            ],
            "name": "skinCluster0"
        }
    ],
    "accessors": [
        {
            "bufferView": 0,
            "byteOffset": 0,
            "componentType": 5123,
            "count": 5700,
            "max": [
                1057
            ],
            "min": [
                0
            ],
            "type": "SCALAR"
        },
        {
            "bufferView": 1,
            "byteOffset": 0,
            "componentType": 5123,
            "count": 1058,
            "max": [
                2,
                2,
                2,
                0
            ],
            "min": [
                0,
                0,
                0,
                0
            ],
            "type": "VEC4"
        },
        {
            "bufferView": 2,
            "byteOffset": 0,
            "componentType": 5126,
            "count": 1058,
            "max": [
                0.999405026435852,
                0.9998127818107604,
                0.9999964237213136
            ],
            "min": [
                -0.9861193299293518,
                -0.9998127818107604,
                -0.999991774559021
            ],
            "type": "VEC3"
        },
        {
            "bufferView": 2,
            "byteOffset": 12696,
            "componentType": 5126,
            "count": 1058,
            "max": [
                51.04904174804688,
                5.043885707855225,
                6.860509872436523
            ],
            "min": [
                0.9718303680419922,
                -5.04388427734375,
                -5.124265193939209
            ],
            "type": "VEC3"
        },
        {
            "bufferView": 1,
            "byteOffset": 8464,
            "componentType": 5126,
            "count": 1058,
            "max": [
                0.9974981546401978,
                0.9968109130859376
            ],
            "min": [
                0.0001698415435384959,
                0.0007429122924804688
            ],
            "type": "VEC2"
        },
        {
            "bufferView": 3,
            "byteOffset": 0,
            "componentType": 5126,
            "count": 1058,
            "max": [
                1.0,
                0.9800000190734864,
                0.29742270708084106,
                0.0
            ],
            "min": [
                0.01648125611245632,
                0.0,
                0.0,
                0.0
            ],
            "type": "VEC4"
        },
        {
            "bufferView": 4,
            "byteOffset": 0,
            "componentType": 5126,
            "count": 3,
            "max": [
                0.9999958872795104,
                0.016164137050509453,
                -5.647709522271781e-10,
                0.0,
                3.4527436465481283e-09,
                -3.576187452836166e-07,
                -1.0,
                0.0,
                0.00289070256985724,
                0.9999958872795104,
                -3.576054439236032e-07,
                0.0,
                -0.10131598263978958,
                0.7038228511810303,
                -6.100832283806312e-09,
                1.0
            ],
            "min": [
                0.9998694062232972,
                -0.002890706527978182,
                -3.2672256011778704e-09,
                0.0,
                -6.59627075183522e-10,
                -3.576326719212375e-07,
                -1.0,
                0.0,
                -0.016164138913154606,
                0.9998693466186525,
                -3.576132314719871e-07,
                0.0,
                -44.08867645263672,
                -0.13639509677886963,
                -1.7466766166762684e-07,
                1.0
            ],
            "type": "MAT4"
        }
    ],
    "materials": [
        {
            "pbrMetallicRoughness": {
                "baseColorTexture": {
                    "index": 0
                },
                "metallicFactor": 0.0
            },
            "name": "sakana_zako2"
        }
    ],
    "textures": [
        {
            "sampler": 0,
            "source": 0
        }
    ],
    "images": [
        {
            "uri": "data:image/png;base64,"
        }
    ],
    "samplers": [
        {
            "magFilter": 9729,
            "minFilter": 9986,
            "wrapS": 10497,
            "wrapT": 10497
        }
    ],
    "bufferViews": [
        {
            "buffer": 0,
            "byteOffset": 59440,
            "byteLength": 11400,
            "target": 34963
        },
        {
            "buffer": 0,
            "byteOffset": 42512,
            "byteLength": 16928,
            "byteStride": 8,
            "target": 34962
        },
        {
            "buffer": 0,
            "byteOffset": 17120,
            "byteLength": 25392,
            "byteStride": 12,
            "target": 34962
        },
        {
            "buffer": 0,
            "byteOffset": 192,
            "byteLength": 16928,
            "byteStride": 16,
            "target": 34962
        },
        {
            "buffer": 0,
            "byteOffset": 0,
            "byteLength": 192
        }
    ],
    "buffers": [
        {
            "byteLength": 70840,
            "uri": "data:application/octet-stream;base64,"
        }
    ]
}